<?xml version="1.0" encoding="UTF-8"?>
<svg version="1.1" xmlns="http://www.w3.org/2000/svg" viewBox="0 0 47.2188 29.7031">
  <g fill="black" fill-opacity="0.85">
    <path d="M9.79688 11.9531C9.79688 10.9297 10.4688 10.2812 11.5234 10.2812L13.9766 10.2812L13.9766 7.94531C13.9766 6.875 14.6406 6.1875 15.6875 6.1875C16.7344 6.1875 17.3984 6.875 17.3984 7.94531L17.3984 10.2812L19.6875 10.2812C20.8281 10.2812 21.5391 10.9297 21.5391 11.9531C21.5391 12.9922 20.8281 13.6484 19.6875 13.6484L17.3984 13.6484L17.3984 15.9922C17.3984 17.0547 16.7344 17.75 15.6875 17.75C14.6406 17.75 13.9766 17.0547 13.9766 15.9922L13.9766 13.6484L11.5234 13.6484C10.4688 13.6484 9.79688 12.9922 9.79688 11.9531ZM33.8125 11.9219C32.3906 11.9219 31.2266 10.7969 31.2266 9.36719C31.2266 7.92188 32.3906 6.78125 33.8125 6.78125C35.2578 6.78125 36.3906 7.92188 36.3906 9.36719C36.3906 10.7969 35.2578 11.9219 33.8125 11.9219ZM28.8359 16.9844C27.4219 16.9844 26.2656 15.8516 26.2656 14.4219C26.2656 12.9844 27.4219 11.8516 28.8359 11.8516C30.2734 11.8516 31.4219 12.9844 31.4219 14.4219C31.4219 15.8516 30.2734 16.9844 28.8359 16.9844ZM6.36719 29.7031C8.97656 29.7031 10.7578 28.6953 12.2891 27.0547L14.9766 24.1328C15.3672 23.7188 15.6797 23.5234 16.1875 23.5234L30.6562 23.5234C31.1641 23.5234 31.4766 23.7188 31.8672 24.1328L34.5625 27.0547C36.0938 28.6875 37.8672 29.7031 40.4766 29.7031C44.1719 29.7031 46.8438 27.2969 46.8438 23.2578C46.8438 21.4922 46.5 19.5312 45.8594 17.4062C44.8828 14.1484 43.2031 9.75781 41.6172 6.41406C40.2422 3.54688 39.4141 1.97656 35.7891 1.15625C32.6719 0.445312 28.4688 0.0078125 23.4297 0.0078125C18.3828 0.0078125 14.1719 0.445312 11.0547 1.15625C7.42969 1.97656 6.60156 3.54688 5.23438 6.41406C3.64844 9.75781 1.96094 14.1484 0.992188 17.4062C0.351562 19.5312 0 21.4922 0 23.2578C0 27.2969 2.67188 29.7031 6.36719 29.7031Z"/>
  </g>
</svg>
