<?xml version="1.0" encoding="UTF-8"?>
<!--Generator: Apple Native CoreSVG 326-->
<!DOCTYPE svg
PUBLIC "-//W3C//DTD SVG 1.1//EN"
       "http://www.w3.org/Graphics/SVG/1.1/DTD/svg11.dtd">
<svg version="1.1" xmlns="http://www.w3.org/2000/svg" xmlns:xlink="http://www.w3.org/1999/xlink" viewBox="0 0 33.3828 33.0156">
  <g>
    <rect height="33.0156" opacity="0" width="33.3828" x="0" y="0"/>
    <path d="M16.5 33C25.6172 33 33.0078 25.6094 33.0078 16.5C33.0078 7.39062 25.6172 0 16.5 0C7.39062 0 0 7.39062 0 16.5C0 25.6094 7.39062 33 16.5 33ZM16.5 28.8906C9.64844 28.8906 4.10938 23.3516 4.10938 16.5C4.10938 9.64844 9.64844 4.10938 16.5 4.10938C23.3516 4.10938 28.8984 9.64844 28.8984 16.5C28.8984 23.3516 23.3516 28.8906 16.5 28.8906Z" fill="black" fill-opacity="0.85"/>
    <path d="M14.8594 23.9453C15.5 23.9453 16.0781 23.6172 16.4453 23.0469L23.1641 12.6953C23.4062 12.3125 23.5703 11.9141 23.5703 11.5469C23.5703 10.625 22.7578 9.98438 21.8828 9.98438C21.3047 9.98438 20.8203 10.2969 20.4297 10.9219L14.8203 19.9531L12.2266 16.75C11.8281 16.2656 11.4141 16.0625 10.8828 16.0625C9.98438 16.0625 9.24219 16.7891 9.24219 17.6953C9.24219 18.1328 9.39844 18.4922 9.72656 18.9062L13.2109 23.0781C13.6797 23.6406 14.2031 23.9453 14.8594 23.9453Z" fill="black" fill-opacity="0.85"/>
  </g>
</svg>
